# xmcd
#
# Track frame offsets: 
#        300
#        23195
#        51035
#        69215
#        95646
#        113426
#        134707
#        169067
#        194599
#        219299
#        245783
#        268992
#
# Disc length: 4043 seconds
#
# Revision: 0
# Processed by: cddbd v1.5.2PL0 Copyright (c) Steve Scherf et al.
# Submitted via: ExactAudioCopy v1.0b1
#
DISCID=b40fc70c
DTITLE=Albert Castiglia - Keepin On
DYEAR=2010
DGENRE=General Blues
TTITLE0=Cadillac Assembly Line
TTITLE1=Till I Fell In Love With You
TTITLE2=Mojo 305
TTITLE3=Keep On Keepin' On
TTITLE4=My Baby Is Now On My Mind
TTITLE5=Do You Love Me?
TTITLE6=Could Not Ask For More
TTITLE7=Sweet Southern Angel
TTITLE8=Murderin' Blues
TTITLE9=Goin' Upstairs
TTITLE10=Gettin' By
TTITLE11=Closing Time
EXTD=
EXTT0=
EXTT1=
EXTT2=
EXTT3=
EXTT4=
EXTT5=
EXTT6=
EXTT7=
EXTT8=
EXTT9=
EXTT10=
EXTT11=
PLAYORDER=
